<svg xmlns="http://www.w3.org/2000/svg" xmlns:xlink="http://www.w3.org/1999/xlink" width="500" zoomAndPan="magnify" viewBox="0 0 375 374.999991" height="500" preserveAspectRatio="xMidYMid meet" version="1.0"><defs><clipPath id="67d410787a"><path d="M 37.5 37.5 L 337.5 37.5 L 337.5 337.5 L 37.5 337.5 Z M 37.5 37.5 " clip-rule="nonzero"/></clipPath></defs><rect x="-37.5" width="450" fill="#ffffff" y="-37.499999" height="449.999989" fill-opacity="1"/><rect x="-37.5" width="450" fill="#ffffff" y="-37.499999" height="449.999989" fill-opacity="1"/><g clip-path="url(#67d410787a)"><path fill="#ed1c24" d="M 337.496094 187.5 C 337.496094 270.339844 270.339844 337.496094 187.5 337.496094 C 104.660156 337.496094 37.503906 270.339844 37.503906 187.5 C 37.503906 104.660156 104.660156 37.503906 187.5 37.503906 C 270.339844 37.503906 337.496094 104.660156 337.496094 187.5 " fill-opacity="1" fill-rule="nonzero"/></g><path fill="#ffffff" d="M 220.574219 134.605469 L 220.566406 136.074219 L 220.558594 136.695312 L 220.390625 162.78125 L 220.386719 163.753906 L 220.210938 190.621094 L 220.210938 191.152344 L 220.03125 218.503906 L 220.03125 218.550781 C 220.03125 218.769531 220.011719 218.980469 219.992188 219.195312 C 219.792969 222.449219 218.386719 225.394531 216.167969 227.660156 C 216.171875 227.660156 216.183594 227.664062 216.183594 227.664062 C 216.183594 227.664062 216.148438 227.691406 216.089844 227.738281 C 215.242188 228.589844 214.289062 229.347656 213.238281 229.984375 C 188.953125 245.207031 183.652344 274.558594 183.652344 274.558594 C 183.613281 280.363281 178.242188 285.757812 171.328125 285.757812 C 170.609375 285.757812 169.875 285.699219 169.128906 285.578125 C 151.078125 282.628906 155.167969 254.402344 161.347656 231.933594 L 115.277344 231.636719 C 107.019531 231.582031 100.367188 225.355469 100.414062 217.730469 C 100.464844 210.136719 107.140625 204.015625 115.351562 204.015625 C 115.386719 204.015625 115.421875 204.019531 115.457031 204.019531 L 119.71875 204.046875 C 111.617188 203.992188 105.09375 197.886719 105.140625 190.40625 L 105.144531 189.878906 C 105.191406 182.429688 111.738281 176.425781 119.792969 176.425781 C 119.828125 176.425781 119.863281 176.425781 119.898438 176.425781 L 123.398438 176.449219 C 115.433594 176.398438 109.011719 170.394531 109.0625 163.035156 L 109.066406 162.0625 C 109.113281 154.734375 115.554688 148.832031 123.476562 148.832031 C 123.507812 148.832031 123.542969 148.832031 123.578125 148.832031 L 132.113281 148.886719 C 124.480469 148.839844 118.332031 143.085938 118.375 136.035156 L 118.390625 133.945312 C 118.433594 126.925781 124.605469 121.269531 132.195312 121.269531 C 132.226562 121.269531 132.257812 121.269531 132.292969 121.269531 L 206.835938 121.753906 C 214.46875 121.800781 220.621094 127.554688 220.574219 134.605469 Z M 261.292969 125.109375 L 260.65625 223.464844 C 260.640625 225.945312 258.617188 227.941406 256.140625 227.925781 L 230.59375 227.757812 C 228.113281 227.742188 226.117188 225.722656 226.132812 223.242188 L 226.769531 124.886719 C 226.785156 122.40625 228.804688 120.410156 231.285156 120.429688 L 256.832031 120.59375 C 259.3125 120.609375 261.308594 122.632812 261.292969 125.109375 " fill-opacity="1" fill-rule="nonzero"/></svg>