<svg xmlns="http://www.w3.org/2000/svg" xmlns:xlink="http://www.w3.org/1999/xlink" width="500" zoomAndPan="magnify" viewBox="0 0 375 374.999991" height="500" preserveAspectRatio="xMidYMid meet" version="1.0"><defs><clipPath id="0de4608be5"><path d="M 38 160 L 337.5 160 L 337.5 238.292969 L 38 238.292969 Z M 38 160 " clip-rule="nonzero"/></clipPath><clipPath id="e4963ce4aa"><path d="M 37.5 157.292969 L 337 157.292969 L 337 235 L 37.5 235 Z M 37.5 157.292969 " clip-rule="nonzero"/></clipPath></defs><rect x="-37.5" width="450" fill="#ffffff" y="-37.499999" height="449.999989" fill-opacity="1"/><rect x="-37.5" width="450" fill="#ffffff" y="-37.499999" height="449.999989" fill-opacity="1"/><g clip-path="url(#0de4608be5)"><path fill="#b72323" d="M 298.722656 238.285156 L 77.644531 238.285156 C 56.226562 238.285156 38.867188 220.921875 38.867188 199.503906 C 38.867188 178.089844 56.226562 160.726562 77.644531 160.726562 L 298.722656 160.726562 C 320.140625 160.726562 337.5 178.089844 337.5 199.503906 C 337.5 220.921875 320.140625 238.285156 298.722656 238.285156 Z M 298.722656 238.285156 " fill-opacity="1" fill-rule="nonzero"/></g><g clip-path="url(#e4963ce4aa)"><path fill="#ff0000" d="M 297.355469 234.859375 L 76.277344 234.859375 C 54.859375 234.859375 37.5 217.5 37.5 196.082031 C 37.5 174.664062 54.859375 157.304688 76.277344 157.304688 L 297.355469 157.304688 C 318.773438 157.304688 336.132812 174.664062 336.132812 196.082031 C 336.132812 217.5 318.773438 234.859375 297.355469 234.859375 Z M 297.355469 234.859375 " fill-opacity="1" fill-rule="nonzero"/></g><path fill="#ffffff" d="M 114.351562 185.019531 C 116.464844 184.675781 119.199219 184.472656 122.074219 184.472656 C 126.878906 184.472656 130.015625 185.367188 132.445312 187.191406 C 135.078125 189.164062 136.734375 192.242188 136.734375 196.730469 C 136.734375 201.589844 134.976562 204.941406 132.546875 206.984375 C 129.886719 209.199219 125.800781 210.265625 120.867188 210.265625 C 117.890625 210.265625 115.777344 210.089844 114.367188 209.890625 Z M 120.078125 205.691406 C 120.578125 205.777344 121.371094 205.789062 122.074219 205.789062 C 127.269531 205.835938 130.675781 202.972656 130.675781 196.917969 C 130.691406 191.652344 127.613281 188.890625 122.679688 188.890625 C 121.429688 188.890625 120.578125 188.992188 120.078125 189.105469 Z M 120.078125 205.691406 " fill-opacity="1" fill-rule="nonzero"/><path fill="#ffffff" d="M 163.671875 197.089844 C 163.671875 205.402344 158.652344 210.421875 151.246094 210.421875 C 143.738281 210.421875 139.320312 204.742188 139.320312 197.507812 C 139.320312 189.941406 144.199219 184.257812 151.648438 184.257812 C 159.429688 184.257812 163.6875 190.082031 163.671875 197.089844 Z M 145.378906 197.40625 C 145.378906 202.367188 147.707031 205.863281 151.535156 205.863281 C 155.402344 205.863281 157.617188 202.210938 157.617188 197.277344 C 157.617188 192.714844 155.460938 188.804688 151.519531 188.804688 C 147.648438 188.816406 145.378906 192.472656 145.378906 197.40625 Z M 145.378906 197.40625 " fill-opacity="1" fill-rule="nonzero"/><path fill="#ffffff" d="M 171.269531 210.003906 L 165.269531 184.675781 L 171.410156 184.675781 L 173.324219 195.105469 C 173.871094 198.125 174.390625 201.402344 174.792969 203.964844 L 174.878906 203.964844 C 175.28125 201.21875 175.898438 198.183594 176.53125 195.03125 L 178.703125 184.675781 L 184.789062 184.675781 L 186.816406 195.363281 C 187.363281 198.324219 187.78125 201.03125 188.15625 203.835938 L 188.226562 203.835938 C 188.628906 201.015625 189.160156 198.066406 189.722656 195.03125 L 191.777344 184.675781 L 197.605469 184.675781 L 191.058594 210.003906 L 184.875 210.003906 L 182.71875 199.101562 C 182.214844 196.570312 181.8125 194.183594 181.496094 191.304688 L 181.421875 191.304688 C 180.992188 194.15625 180.589844 196.554688 179.984375 199.117188 L 177.566406 210.003906 Z M 171.269531 210.003906 " fill-opacity="1" fill-rule="nonzero"/><path fill="#ffffff" d="M 200.566406 210.019531 L 200.566406 184.691406 L 207.242188 184.691406 L 212.507812 193.980469 C 214.015625 196.644531 215.496094 199.808594 216.648438 202.667969 L 216.75 202.65625 C 216.402344 199.304688 216.289062 195.894531 216.289062 192.070312 L 216.289062 184.691406 L 221.554688 184.691406 L 221.554688 210.019531 L 215.554688 210.019531 L 210.132812 200.269531 C 208.621094 197.535156 206.953125 194.285156 205.730469 191.320312 L 205.601562 191.335938 C 205.773438 194.6875 205.847656 198.28125 205.847656 202.410156 L 205.847656 210.019531 Z M 200.566406 210.019531 " fill-opacity="1" fill-rule="nonzero"/><path fill="#ffffff" d="M 226.515625 184.691406 L 232.242188 184.691406 L 232.242188 205.214844 L 242.324219 205.214844 L 242.324219 210.019531 L 226.515625 210.019531 Z M 226.515625 184.691406 " fill-opacity="1" fill-rule="nonzero"/><path fill="#ffffff" d="M 267.453125 197.101562 C 267.453125 205.417969 262.433594 210.4375 255.023438 210.4375 C 247.515625 210.4375 243.101562 204.753906 243.101562 197.519531 C 243.101562 189.953125 247.976562 184.273438 255.425781 184.273438 C 263.207031 184.289062 267.453125 190.097656 267.453125 197.101562 Z M 249.15625 197.417969 C 249.15625 202.382812 251.484375 205.878906 255.3125 205.878906 C 259.179688 205.878906 261.394531 202.222656 261.394531 197.289062 C 261.394531 192.730469 259.238281 188.816406 255.296875 188.816406 C 251.429688 188.832031 249.15625 192.5 249.15625 197.417969 Z M 249.15625 197.417969 " fill-opacity="1" fill-rule="nonzero"/><path fill="#ffffff" d="M 276.5 203.53125 L 274.714844 210.035156 L 268.789062 210.035156 L 276.527344 184.703125 L 284.023438 184.703125 L 291.902344 210.035156 L 285.734375 210.035156 L 283.792969 203.53125 Z M 282.941406 199.261719 L 281.359375 193.882812 C 280.929688 192.386719 280.484375 190.488281 280.09375 189.003906 L 280.007812 189.003906 C 279.632812 190.5 279.261719 192.414062 278.84375 193.894531 L 277.332031 199.273438 Z M 282.941406 199.261719 " fill-opacity="1" fill-rule="nonzero"/><path fill="#ffffff" d="M 295.285156 185.050781 C 297.398438 184.703125 300.132812 184.503906 303.007812 184.503906 C 307.8125 184.503906 310.949219 185.394531 313.378906 187.222656 C 316.011719 189.191406 317.664062 192.269531 317.664062 196.757812 C 317.664062 201.621094 315.910156 204.972656 313.480469 207.011719 C 310.816406 209.230469 306.734375 210.292969 301.800781 210.292969 C 298.824219 210.292969 296.707031 210.121094 295.296875 209.917969 Z M 301.007812 205.71875 C 301.511719 205.804688 302.304688 205.820312 303.007812 205.820312 C 308.199219 205.863281 311.609375 203 311.609375 196.945312 C 311.625 191.679688 308.546875 188.917969 303.613281 188.917969 C 302.359375 188.917969 301.511719 189.019531 301.007812 189.132812 Z M 301.007812 205.71875 " fill-opacity="1" fill-rule="nonzero"/><path fill="#ffffff" d="M 90.117188 199.089844 L 90.117188 181.078125 L 74.464844 181.078125 L 74.464844 199.089844 L 66.109375 199.089844 L 74.09375 210.378906 L 82.0625 221.671875 L 90.027344 210.378906 L 97.996094 199.089844 Z M 90.117188 199.089844 " fill-opacity="1" fill-rule="nonzero"/></svg>