<svg xmlns="http://www.w3.org/2000/svg" xmlns:xlink="http://www.w3.org/1999/xlink" width="500" zoomAndPan="magnify" viewBox="0 0 375 374.999991" height="500" preserveAspectRatio="xMidYMid meet" version="1.0"><defs><clipPath id="dedab698d8"><path d="M 37.5 37.5 L 337.5 37.5 L 337.5 337.5 L 37.5 337.5 Z M 37.5 37.5 " clip-rule="nonzero"/></clipPath></defs><rect x="-37.5" width="450" fill="#ffffff" y="-37.499999" height="449.999989" fill-opacity="1"/><rect x="-37.5" width="450" fill="#ffffff" y="-37.499999" height="449.999989" fill-opacity="1"/><g clip-path="url(#dedab698d8)"><path fill="#357180" d="M 37.5 187.5 C 37.5 104.671875 104.671875 37.5 187.5 37.5 C 270.328125 37.5 337.5 104.671875 337.5 187.5 C 337.5 270.328125 270.328125 337.5 187.5 337.5 C 104.671875 337.5 37.5 270.328125 37.5 187.5 Z M 37.5 187.5 " fill-opacity="1" fill-rule="nonzero"/></g><path fill="#f7f7f7" d="M 279.820312 140.039062 C 278.308594 137.078125 270.933594 130.367188 258.480469 136.472656 C 246.023438 142.578125 252.070312 156 252.070312 156 C 256.726562 165.492188 259.324219 176.195312 259.324219 187.441406 C 259.324219 227.101562 227.160156 259.265625 187.5 259.265625 C 147.839844 259.265625 115.675781 227.101562 115.675781 187.441406 C 115.675781 150.316406 143.847656 119.785156 180.003906 115.976562 L 180.003906 134.597656 C 180.003906 134.597656 179.941406 135.6875 181.089844 136.410156 C 182.238281 137.136719 183.390625 136.410156 183.390625 136.410156 L 243 101.285156 C 243 101.285156 244.332031 100.558594 244.332031 99.230469 C 244.332031 98.082031 243 97.292969 243 97.292969 L 183.628906 62.347656 C 183.628906 62.347656 182.300781 61.382812 181.089844 61.863281 C 179.882812 62.347656 180.0625 63.980469 180.0625 63.980469 L 180.0625 83.933594 C 126.253906 87.800781 83.8125 132.664062 83.8125 187.441406 C 83.8125 244.753906 130.304688 291.25 187.621094 291.25 C 244.9375 291.25 291.429688 244.753906 291.429688 187.441406 C 291.308594 170.390625 287.136719 154.246094 279.820312 140.039062 Z M 279.820312 140.039062 " fill-opacity="1" fill-rule="nonzero"/></svg>